# xmcd
#
# Track frame offsets:
#	150
#	12525
#	25872
#	39500
#	52147
#	66397
#	82577
#	97910
#	112827
#	134745
#	148627
#	161555
#	173862
#	187152
#	202545
#	216895
#	238117
#	253892
#	271730
#
# Disc length: 4090 seconds
#
# Revision: 0
# Processed by: cddbd v1.4PL0 Copyright (c) Steve Scherf et al.
# Submitted via: dBpowerAMP V4.0
#
DISCID=0d0ff813
DTITLE=John Lee Hooker - John Lee Hooker
DYEAR=1900
DGENRE=Blues
TTITLE0=War Is Over (Goodbye California)
TTITLE1=Momma Poppa Boogie
TTITLE2=Black Cat Blues
TTITLE3=Huckle Up Baby
TTITLE4=Goin' South
TTITLE5=Black Snake
TTITLE6=Tupelo Blues
TTITLE7=Burnin' Hell
TTITLE8=Baby, Please Don't Go
TTITLE9=Natchez Fire (Burnin')
TTITLE10=You Lost A Good Man
TTITLE11=Don't Turn Me From Your Door
TTITLE12=Boogie Chillun
TTITLE13=Night Time Is The Right Time
TTITLE14=I Need Some Money
TTITLE15=Goin' To Louisiana
TTITLE16=My Love Comes Down For You
TTITLE17=Two White Horses
TTITLE18=Feel So Bad
EXTD=
EXTT0=
EXTT1=
EXTT2=
EXTT3=
EXTT4=
EXTT5=
EXTT6=
EXTT7=
EXTT8=
EXTT9=
EXTT10=
EXTT11=
EXTT12=
EXTT13=
EXTT14=
EXTT15=
EXTT16=
EXTT17=
EXTT18=
PLAYORDER=
